PathFileType	4	(X/Y/Z)	C:/Users/opensim2020/Desktop/walking_exp_matlab/subject03_walking10_straight_01.trc	
DataRate	CameraRate	NumFrames	NumMarkers	Units	OrigDataRate	OrigDataStartFrame	OrigNumFrames	
100.00	100.00	9	45	mm	100.00	778	477	
Frame#	Time	LFHD			RFHD			LBHD			RBHD			C7			T10			CLAV			STRN			RBAK			LSHO			LUPA			LELB			LFRM			LWRA			LWRB			LFIN			RSHO			RUPA			RELB			RFRM			RWRA			RWRB			RFIN			LASI			RASI			LPSI			RPSI			LTHI			LKNE			LTIB			LANK			LHEE			LTOE			RTHI			RKNE			RTIB			RANK			RHEE			RTOE			*39			*40			*41			*42			*43			*44			
		X1	Y1	Z1	X2	Y2	Z2	X3	Y3	Z3	X4	Y4	Z4	X5	Y5	Z5	X6	Y6	Z6	X7	Y7	Z7	X8	Y8	Z8	X9	Y9	Z9	X10	Y10	Z10	X11	Y11	Z11	X12	Y12	Z12	X13	Y13	Z13	X14	Y14	Z14	X15	Y15	Z15	X16	Y16	Z16	X17	Y17	Z17	X18	Y18	Z18	X19	Y19	Z19	X20	Y20	Z20	X21	Y21	Z21	X22	Y22	Z22	X23	Y23	Z23	X24	Y24	Z24	X25	Y25	Z25	X26	Y26	Z26	X27	Y27	Z27	X28	Y28	Z28	X29	Y29	Z29	X30	Y30	Z30	X31	Y31	Z31	X32	Y32	Z32	X33	Y33	Z33	X34	Y34	Z34	X35	Y35	Z35	X36	Y36	Z36	X37	Y37	Z37	X38	Y38	Z38	X39	Y39	Z39	X40	Y40	Z40	X41	Y41	Z41	X42	Y42	Z42	X43	Y43	Z43	X44	Y44	Z44	X45	Y45	Z45	

120	1.190	1335.36133	-857.42444	1628.27295	1468.24561	-865.53577	1638.30115	1337.88574	-971.41113	1554.92029	1468.55457	-975.19220	1565.86548	1402.68713	-979.35382	1420.04773	1416.12769	-1028.00549	1112.34106	1408.69019	-859.04333	1339.77417	1411.32800	-825.41962	1171.30835	1507.17651	-1042.04553	1256.73206	1250.38110	-900.06830	1371.92798	1190.26379	-930.87946	1172.72607	1182.42236	-939.35016	1049.62256	1182.18884	-926.24988	919.93018	1213.46655	-915.05377	800.08252	1165.76282	-944.52002	807.74811	1177.13318	-937.71307	722.76953	1566.11230	-903.88367	1372.93445	1642.63696	-900.66754	1152.60730	1656.77466	-880.35864	1041.66089	1659.22119	-854.35675	907.18701	1623.90173	-816.79303	814.65857	1667.71887	-848.12213	807.06409	1656.95532	-820.55750	737.56476	1306.11096	-867.42926	942.73956	1542.27979	-874.69110	936.54401	1348.93848	-1030.26709	971.71899	1498.89807	-1031.56470	978.25494	1265.09583	-897.98376	643.53998	1308.90833	-862.98212	470.35052	1304.29749	-877.09662	277.79419	1342.37097	-849.88300	68.88940	1378.95239	-888.24261	34.31863	1370.76868	-696.75934	36.98740	1583.17236	-967.43494	645.76929	1555.77551	-981.12811	465.57458	1559.07397	-1107.47302	315.62939	1513.61646	-1230.50916	136.76680	1461.06116	-1282.57202	128.50406	1494.99451	-1125.16394	36.72215	1381.06189	-955.07471	1669.74646															 
121	1.200	1334.12378	-851.10760	1628.79395	1467.03308	-859.61536	1638.97412	1336.45874	-964.98462	1555.32129	1467.08777	-969.20728	1566.47583	1401.32617	-973.13293	1420.61169	1414.49365	-1021.65363	1112.87842	1407.66211	-852.77118	1340.34766	1410.31738	-818.82806	1172.03271	1505.72375	-1035.73865	1257.11133	1249.35767	-893.23358	1372.53931	1188.72192	-922.66254	1173.47070	1180.78479	-930.74921	1050.32251	1180.62256	-916.39856	920.72101	1210.70398	-903.13690	800.86224	1164.15540	-933.61707	808.33044	1175.61816	-926.13593	723.36035	1564.88025	-897.92383	1373.50195	1641.58362	-895.19867	1153.21375	1656.09570	-875.57013	1042.23389	1659.01172	-850.42902	907.51459	1624.25769	-813.31732	814.78406	1667.93298	-844.93823	807.41412	1657.33191	-818.00580	737.55316	1304.64636	-860.89801	942.93158	1540.90015	-868.53473	937.20917	1347.21716	-1023.72101	972.24762	1497.25293	-1025.36316	978.81433	1263.67786	-893.24323	643.87396	1307.97192	-859.84174	470.20850	1303.74084	-875.07190	277.93707	1342.43628	-849.73413	68.91265	1378.93250	-888.21930	34.36998	1371.04785	-696.53320	36.78696	1584.04968	-959.62476	646.30096	1557.09241	-969.65308	465.22989	1559.91602	-1098.60303	317.57382	1514.35693	-1225.04846	141.28969	1461.52844	-1276.95837	135.16142	1495.06750	-1124.12927	37.06487	1379.49353	-948.90466	1670.24390															 
122	1.210	1332.92273	-844.80896	1629.14136	1465.87488	-853.69525	1639.47656	1335.10303	-958.61456	1555.60339	1465.69690	-963.24756	1566.89758	1400.07141	-966.90918	1421.02551	1412.75940	-1015.32776	1113.24243	1406.61609	-846.62231	1340.80090	1409.18066	-812.60620	1172.43579	1504.24817	-1029.55518	1257.39185	1248.32629	-886.47229	1373.12744	1187.19153	-914.54706	1173.87988	1179.16101	-922.01929	1050.79382	1179.00244	-906.39990	921.41217	1208.96619	-891.44006	802.08075	1162.53247	-922.52100	808.85193	1174.06067	-914.20691	723.91772	1563.67932	-892.08258	1373.88464	1640.56018	-889.79675	1153.63782	1655.32385	-870.85358	1042.60791	1658.81909	-846.38562	907.76666	1624.49927	-809.79956	814.50934	1668.19629	-841.62189	807.66504	1657.88025	-815.32056	737.51526	1303.28247	-854.89868	943.05334	1539.56213	-862.48016	937.75165	1345.63855	-1017.18396	972.78943	1495.64172	-1019.33228	979.12146	1262.41321	-888.63049	644.25653	1307.06641	-856.44348	470.36960	1303.48975	-872.72925	277.93137	1342.49512	-849.56982	68.93549	1378.95325	-888.14966	34.34477	1371.21338	-696.34656	36.62262	1583.63586	-950.11212	646.07117	1558.42126	-957.72455	464.73199	1560.77905	-1088.91931	319.34229	1515.21130	-1218.97180	146.02556	1461.99878	-1270.61133	141.89252	1494.90417	-1122.95654	37.41860	1377.99304	-942.74036	1670.58057															 
123	1.220	1331.76563	-838.56708	1629.38257	1464.73743	-847.89948	1639.88879	1333.74866	-952.37769	1555.76587	1464.19238	-957.25970	1567.26880	1398.77991	-960.62378	1421.19580	1411.11755	-1009.20258	1113.53796	1405.67847	-840.43530	1341.20142	1408.15588	-806.42548	1172.61084	1502.74719	-1023.56494	1257.54468	1247.33777	-879.81030	1373.51270	1185.99805	-906.57458	1174.44702	1177.53760	-913.35455	1051.22009	1177.32898	-896.34033	921.89539	1207.49170	-880.01526	803.09064	1160.83826	-911.14563	809.28833	1172.44299	-901.88080	724.41925	1562.67395	-886.01526	1374.05188	1639.59351	-884.45837	1153.86938	1654.69177	-865.95953	1042.84839	1658.66736	-842.27582	907.89471	1624.88281	-805.96484	814.38190	1668.38171	-838.01910	807.74023	1658.16235	-812.40753	737.28314	1301.89966	-848.71533	943.31250	1538.27454	-856.66498	938.08508	1344.19897	-1011.03174	973.48938	1494.07251	-1013.48712	979.18182	1261.26514	-883.89899	644.63904	1306.26001	-852.87518	470.76895	1302.57056	-870.94611	278.11591	1342.55945	-849.45331	68.92268	1378.90796	-888.10132	34.35585	1371.29944	-696.12952	36.45383	1583.59924	-941.06702	645.82867	1559.68628	-945.43774	464.14874	1561.63843	-1078.57275	320.98935	1515.90894	-1211.94116	150.51775	1462.62695	-1263.47522	148.69086	1494.08423	-1121.94714	37.26146	1376.51880	-936.65710	1670.84827															 
124	1.230	1330.76648	-832.37073	1629.46069	1463.64172	-842.11945	1640.17261	1332.51855	-946.11694	1555.84937	1463.04675	-951.58710	1567.58740	1397.59338	-954.77307	1421.47290	1409.56104	-1003.16620	1113.73535	1404.72424	-834.47308	1341.34998	1407.52002	-799.92804	1173.29932	1501.18433	-1017.73651	1257.52234	1246.34900	-873.27045	1373.79468	1184.56262	-898.76013	1174.76050	1175.90747	-904.44678	1051.46069	1175.77380	-885.93799	922.39380	1205.91016	-868.53052	803.85114	1159.23792	-899.45880	809.56641	1170.52625	-888.90625	724.81555	1561.56238	-880.56934	1374.14819	1638.67676	-879.26440	1153.95618	1654.11670	-860.98907	1042.89319	1658.50317	-838.05035	907.86780	1625.08752	-802.11981	814.06287	1668.61609	-834.36285	807.72150	1658.67578	-809.15601	737.07263	1300.63904	-842.17181	943.79266	1537.04956	-850.88617	938.27179	1342.76025	-1004.90814	974.02557	1492.62024	-1007.77301	979.12573	1260.13586	-879.18872	645.05280	1305.34521	-849.46057	470.71939	1302.23755	-868.86530	278.08337	1342.64697	-849.34491	68.91969	1378.90454	-888.09418	34.39339	1371.41492	-695.99725	36.29501	1583.72876	-931.86438	645.36554	1560.85242	-932.91577	463.58569	1562.49878	-1067.73840	322.50241	1516.79553	-1204.44373	154.96596	1463.33423	-1255.64856	155.42792	1493.95789	-1120.44006	37.73055	1375.20972	-930.59369	1670.93738															 
125	1.240	1329.79272	-826.22748	1629.48694	1462.68762	-836.31421	1640.29309	1331.36292	-939.90558	1555.79468	1461.65381	-945.58716	1567.60168	1396.44250	-948.77588	1421.46521	1408.12500	-997.30035	1113.83044	1403.87695	-828.53290	1341.46301	1406.22351	-794.46735	1173.02454	1499.61560	-1012.03381	1257.38672	1245.43860	-866.91034	1373.88574	1183.16150	-890.67944	1174.86401	1174.44409	-895.21375	1051.61389	1174.15137	-875.56049	922.74707	1204.41370	-856.67792	804.46484	1157.39282	-887.57263	809.98358	1168.99487	-876.24115	725.30072	1560.66968	-874.89557	1373.97095	1637.79761	-874.07971	1153.88110	1653.56665	-856.13422	1042.87476	1658.36621	-833.74023	907.70007	1625.38684	-798.17462	813.62476	1668.88293	-830.54657	807.64429	1659.05969	-805.65295	736.69482	1299.43640	-836.78180	943.79840	1535.87585	-845.30280	938.33887	1341.44995	-999.05023	974.43945	1491.22644	-1002.21985	978.93719	1259.19543	-874.48151	645.38818	1304.52173	-846.02991	471.01999	1301.66895	-867.02161	278.09445	1342.70886	-849.25671	68.92236	1378.92737	-888.05255	34.38599	1371.50916	-695.81451	36.15457	1583.80750	-922.45581	644.72290	1561.76831	-920.26520	462.97607	1563.33203	-1056.45728	323.84842	1517.79871	-1196.20300	159.18042	1464.15491	-1247.13806	161.94055	1494.27380	-1118.50134	38.05961	1373.90015	-924.62714	1671.01990															 
126	1.250	1328.81555	-820.19348	1629.37756	1461.76111	-830.69147	1640.39185	1330.23901	-933.97455	1555.61194	1460.57178	-939.86981	1567.67896	1395.37549	-943.01953	1421.50684	1406.80408	-991.52466	1113.85754	1403.05127	-822.71442	1341.48608	1405.53430	-788.29871	1173.24817	1498.03796	-1006.48364	1257.26245	1244.64636	-860.55621	1373.95056	1181.64160	-882.53253	1174.78723	1172.82813	-886.19812	1051.74377	1172.53027	-864.96381	923.06708	1202.78333	-844.73163	805.01312	1155.84827	-875.48541	810.13544	1167.19165	-862.93073	725.76050	1559.75220	-869.60315	1373.80505	1636.95715	-869.01270	1153.72839	1653.00232	-851.29205	1042.69043	1658.21021	-829.35944	907.46375	1625.53040	-794.06805	813.13391	1669.04797	-826.56726	807.39032	1659.64819	-801.67737	736.36646	1298.28857	-831.01526	944.02887	1534.80872	-839.87469	938.14398	1340.20374	-993.35199	974.79248	1489.96265	-996.78253	978.45349	1258.27686	-869.80475	645.75708	1303.52344	-842.82324	470.98672	1300.75403	-865.41278	278.18475	1342.73022	-849.13745	68.89358	1378.96863	-888.11597	34.41648	1371.54309	-695.72156	36.02179	1583.77161	-913.17053	644.09491	1562.54944	-907.61163	462.48871	1564.06335	-1044.86255	325.02750	1518.54980	-1187.28967	162.99638	1464.78406	-1237.97363	167.96156	1495.71423	-1115.54407	38.93143	1372.72583	-918.63574	1670.91650															 
127	1.260	1328.70020	-814.13721	1629.04907	1460.86536	-824.95782	1640.36926	1329.24695	-927.87048	1555.53430	1459.48804	-934.20660	1567.62341	1394.33521	-937.20288	1421.52405	1405.64185	-985.87109	1113.87952	1402.39478	-816.95642	1341.42261	1404.71899	-782.67157	1173.12915	1496.51978	-1001.09894	1257.03210	1243.82715	-854.32471	1373.89575	1180.72266	-874.88312	1175.06458	1171.19714	-877.37952	1051.73096	1171.00879	-854.22162	923.38806	1201.24792	-832.61499	805.56519	1154.19263	-863.10931	810.26532	1165.37219	-849.27228	726.28119	1558.95215	-864.48706	1373.52856	1636.22913	-864.11792	1153.51062	1652.52625	-846.44135	1042.51343	1658.03003	-824.92023	907.13379	1625.73718	-789.94043	812.68164	1669.23132	-822.46375	807.16064	1660.15552	-797.91840	736.21674	1297.04785	-825.80499	943.82654	1533.78223	-834.48340	937.94641	1339.09033	-987.93091	975.01440	1488.77734	-991.46973	977.96124	1257.46204	-865.30072	646.28088	1302.57898	-839.67224	471.08255	1300.40503	-863.52277	278.18036	1342.67273	-849.14252	68.87605	1378.59778	-888.16748	34.49497	1371.50745	-695.69153	35.90631	1583.16064	-903.49640	643.15161	1563.14966	-895.13354	462.12561	1564.56750	-1033.03918	326.03397	1519.20020	-1178.15564	166.75673	1464.70288	-1228.26221	173.09067	1497.31665	-1110.18103	40.78090	1371.52002	-912.75134	1670.69373															 
128	1.270	1328.00806	-808.16797	1628.91772	1460.15686	-819.28589	1640.35742	1328.29797	-921.95148	1555.30505	1458.25793	-928.08185	1567.38232	1393.33862	-931.23804	1421.49475	1404.62598	-980.39526	1113.89563	1401.74170	-811.41211	1341.23462	1403.85498	-777.22589	1172.96558	1495.05530	-995.80975	1256.88696	1243.11987	-848.15106	1373.77197	1179.45313	-867.22644	1174.86865	1169.88440	-867.80804	1051.79333	1169.49255	-843.35712	923.70776	1199.75269	-819.99823	806.35986	1152.60510	-850.58875	810.49762	1163.58911	-835.31256	726.81610	1558.23364	-859.38452	1373.25574	1635.53430	-859.36823	1153.19739	1651.97302	-841.74896	1042.19885	1657.88062	-820.49469	906.87274	1625.85583	-785.72180	812.16650	1669.37244	-818.24915	806.84979	1660.54614	-793.51080	735.78375	1295.73230	-819.80786	944.19672	1532.80579	-829.17883	937.63025	1338.21130	-982.75739	975.36725	1487.71912	-986.17126	977.36169	1256.60962	-860.77692	646.55670	1301.55322	-836.56927	471.15164	1299.53088	-862.10486	278.29968	1342.62610	-849.09973	68.89503	1378.66284	-888.25421	34.51956	1371.46509	-695.66522	35.87318	1582.84082	-894.52203	642.64819	1563.50220	-882.70770	461.86554	1565.02649	-1021.17511	327.03122	1519.47400	-1168.74377	170.35861	1464.65588	-1218.55334	177.08195	1500.24048	-1102.48157	43.15217	1370.34143	-906.56268	1670.52368															 
